<svg width="500" height="500" viewBox="0 0 500 500" fill="none" xmlns="http://www.w3.org/2000/svg">
<path d="M288.233 208.307C293.672 212.019 300.14 220.27 300.14 220.27L291.264 229.187C291.264 229.187 285.366 221.236 280.006 218.312C278.777 217.641 278.093 217.215 276.759 216.789C275.209 216.295 274.01 216.099 272.385 216.157C270.827 216.212 269.901 216.367 268.457 216.789C266.68 217.309 265.354 218.141 264.53 218.747C254.486 226.123 253.185 233.388 242.988 241.15C241.734 242.105 241.084 242.722 239.74 243.543C238.448 244.333 237.687 244.735 236.277 245.283C234.172 246.1 232.891 246.345 230.648 246.588C228.631 246.807 227.466 246.84 225.452 246.588C223.905 246.395 223.043 246.188 221.556 245.718C220.073 245.249 219.286 244.851 217.875 244.196C216.846 243.718 216.239 243.495 215.277 242.89C214.661 242.503 214.336 242.252 213.762 241.803C212.064 240.474 211.199 239.585 209.865 237.888C208.572 236.241 207.051 233.32 207.051 233.32L205.536 228.752C205.536 228.752 205.192 226.639 205.103 225.272C205.003 223.747 205.103 221.357 205.103 221.357C205.103 221.357 205.601 218.266 206.185 216.354C206.609 214.967 206.834 214.171 207.484 212.874C207.928 211.99 208.228 211.518 208.783 210.699C210.599 208.018 212.043 206.769 214.628 204.826C215.605 204.093 216.161 203.683 217.226 203.086C219.049 202.064 220.181 201.643 222.205 201.129C224.106 200.646 225.225 200.549 227.184 200.476C228.96 200.411 229.974 200.423 231.73 200.694C233.636 200.988 234.7 201.286 236.493 201.999C237.899 202.558 239.904 203.753 239.904 203.753C239.904 203.753 241.165 204.641 241.905 205.262C243.833 206.878 246.451 209.829 246.451 209.829L237.575 218.747C237.575 218.747 235.156 215.72 233.029 214.614C232.221 214.194 231.738 214.003 230.864 213.744C230.037 213.5 229.559 213.376 228.7 213.309C227.601 213.224 225.885 213.527 225.885 213.527C225.885 213.527 223.642 214.056 222.421 214.832C221.108 215.667 219.607 217.659 219.607 217.659C219.607 217.659 218.654 219.184 218.308 220.27C217.893 221.574 217.851 222.38 217.875 223.75C217.896 224.951 218.308 226.795 218.308 226.795C218.308 226.795 218.841 228.323 219.391 229.187C220.228 230.503 220.924 231.131 222.205 232.015C223.359 232.811 224.107 233.149 225.452 233.538C226.441 233.823 227.759 233.902 228.787 233.915C230.346 233.936 231.33 233.857 232.715 233.126C240.177 229.187 246.833 218.422 251.568 213.744C255.311 210.046 255.944 209.373 259.309 207.368C261.79 205.89 263.908 204.913 266.04 204.318C267.515 203.905 268.823 203.683 270.639 203.521C272.599 203.347 273.993 203.362 275.677 203.521C277.13 203.659 277.939 203.827 279.357 204.174C281.175 204.619 282.201 204.916 283.903 205.697C285.697 206.519 286.602 207.193 288.233 208.307Z" fill="white"/>
<path d="M265.548 228.542L279.598 242.201L278.9 242.898C274.328 247.47 266.915 247.47 262.343 242.898L256.768 237.323L265.548 228.542Z" fill="white"/>
<path d="M233.379 224.196C233.379 226.811 231.269 228.931 228.666 228.931C226.063 228.931 223.953 226.811 223.953 224.196C223.953 221.58 226.063 219.46 228.666 219.46C231.269 219.46 233.379 221.58 233.379 224.196Z" fill="#1A8EF7"/>
<path d="M202.951 274.19V310.737C202.951 312.528 203.399 313.845 204.294 314.691C205.239 315.486 206.507 315.884 208.098 315.884C209.341 315.884 210.435 315.71 211.38 315.362C212.324 314.964 213.17 314.442 213.916 313.795L215.557 320.583C214.363 321.528 212.871 322.274 211.081 322.821C209.291 323.368 207.402 323.641 205.413 323.641C202.926 323.641 200.714 323.268 198.774 322.522C196.885 321.776 195.393 320.583 194.299 318.942C193.255 317.301 192.733 315.113 192.733 312.378V277.024L202.951 274.19ZM214.885 285.602V293.209H185.871V285.602H214.885Z" fill="white"/>
<path d="M173.364 299.102C173.364 296.963 172.742 295.298 171.499 294.104C170.306 292.911 168.714 292.314 166.725 292.314C164.886 292.314 163.27 292.787 161.877 293.731C160.485 294.676 159.466 296.242 158.819 298.43L150.093 295.745C150.938 292.463 152.778 289.828 155.612 287.839C158.496 285.85 162.35 284.855 167.173 284.855C170.455 284.855 173.314 285.378 175.751 286.422C178.187 287.416 180.077 288.933 181.419 290.972C182.811 293.01 183.508 295.571 183.508 298.654V313.795C183.508 315.685 184.403 316.63 186.193 316.63C187.038 316.63 187.834 316.505 188.58 316.257L187.983 322.597C186.69 323.243 185.074 323.566 183.135 323.566C181.394 323.566 179.828 323.268 178.436 322.671C177.043 322.074 175.949 321.179 175.154 319.986C174.358 318.743 173.96 317.201 173.96 315.362V315.063L175.751 314.765C175.452 316.654 174.632 318.271 173.289 319.613C171.947 320.906 170.306 321.9 168.366 322.597C166.477 323.293 164.513 323.641 162.474 323.641C159.938 323.641 157.75 323.268 155.91 322.522C154.071 321.726 152.653 320.583 151.659 319.091C150.664 317.599 150.167 315.759 150.167 313.572C150.167 310.787 151.062 308.524 152.852 306.784C154.642 304.994 157.203 303.776 160.535 303.129L174.557 300.295L174.483 306.635L165.532 308.425C163.841 308.773 162.549 309.245 161.654 309.842C160.808 310.389 160.386 311.309 160.386 312.602C160.386 313.845 160.833 314.79 161.728 315.436C162.673 316.083 163.792 316.406 165.085 316.406C166.129 316.406 167.148 316.282 168.143 316.033C169.137 315.784 170.032 315.386 170.828 314.84C171.623 314.293 172.245 313.547 172.692 312.602C173.14 311.657 173.364 310.513 173.364 309.171V299.102Z" fill="white"/>
<path d="M128.41 284.855C132.189 284.855 135.495 285.626 138.33 287.168C141.214 288.709 143.451 290.922 145.042 293.806C146.683 296.69 147.504 300.171 147.504 304.248C147.504 308.276 146.683 311.757 145.042 314.69C143.451 317.574 141.214 319.787 138.33 321.329C135.495 322.87 132.189 323.641 128.41 323.641C124.68 323.641 121.373 322.87 118.489 321.329C115.605 319.787 113.343 317.574 111.702 314.69C110.111 311.757 109.315 308.276 109.315 304.248C109.315 300.171 110.111 296.69 111.702 293.806C113.343 290.922 115.605 288.709 118.489 287.168C121.373 285.626 124.68 284.855 128.41 284.855ZM128.41 292.463C126.52 292.463 124.904 292.911 123.561 293.806C122.268 294.651 121.274 295.944 120.578 297.684C119.882 299.425 119.534 301.613 119.534 304.248C119.534 306.884 119.882 309.071 120.578 310.812C121.274 312.552 122.268 313.87 123.561 314.765C124.904 315.61 126.52 316.033 128.41 316.033C130.249 316.033 131.816 315.61 133.108 314.765C134.451 313.87 135.47 312.552 136.167 310.812C136.863 309.071 137.211 306.884 137.211 304.248C137.211 301.613 136.863 299.425 136.167 297.684C135.47 295.944 134.451 294.651 133.108 293.806C131.816 292.911 130.249 292.463 128.41 292.463Z" fill="white"/>
<path d="M101.384 273.73L101.384 311.409C101.384 313.149 101.682 314.367 102.279 315.063C102.876 315.76 103.87 316.108 105.263 316.108C106.108 316.108 106.804 316.058 107.351 315.958C107.898 315.809 108.594 315.61 109.439 315.362L108.544 322.075C107.699 322.572 106.63 322.945 105.337 323.193C104.094 323.492 102.851 323.641 101.608 323.641C97.9778 323.641 95.3175 322.771 93.6269 321.03C91.986 319.24 91.1655 316.406 91.1655 312.527V273.73H101.384Z" fill="white"/>
<path d="M87.2643 281.947H60.7112V294.477H81.6702V302.756H60.7112V322.895H50.4182V273.667H87.2643V281.947Z" fill="white"/>
<path d="M392.582 322.906V286.161H399.563L399.931 292.334C401.204 289.982 402.895 288.243 405.001 287.116C407.157 285.989 409.435 285.426 411.836 285.426C414.482 285.426 416.907 286.038 419.112 287.263C421.365 288.439 423.056 290.227 424.182 292.628C424.966 291.011 426.044 289.664 427.416 288.586C428.788 287.508 430.307 286.724 431.972 286.234C433.638 285.695 435.279 285.426 436.896 285.426C439.248 285.426 441.453 285.916 443.51 286.896C445.568 287.876 447.234 289.37 448.508 291.379C449.782 293.387 450.418 295.96 450.418 299.095V322.906H442.555V300.345C442.555 297.356 441.845 295.2 440.424 293.877C439.003 292.555 437.19 291.893 434.985 291.893C433.271 291.893 431.678 292.31 430.209 293.143C428.788 293.975 427.636 295.225 426.755 296.891C425.873 298.507 425.432 300.516 425.432 302.917V322.906H417.568V300.345C417.568 297.356 416.858 295.2 415.437 293.877C414.016 292.555 412.203 291.893 409.999 291.893C408.529 291.893 407.059 292.285 405.589 293.069C404.12 293.853 402.895 295.078 401.915 296.744C400.935 298.409 400.445 300.614 400.445 303.358V322.906H392.582Z" fill="#1A8EF7"/>
<path d="M375.582 299.316C375.582 296.866 374.896 294.98 373.524 293.657C372.202 292.285 370.364 291.599 368.013 291.599C365.808 291.599 363.922 292.114 362.354 293.143C360.786 294.171 359.635 295.837 358.9 298.14L352.286 295.347C353.217 292.359 355.029 289.958 357.724 288.145C360.468 286.332 363.995 285.426 368.307 285.426C371.246 285.426 373.843 285.916 376.096 286.896C378.35 287.827 380.114 289.248 381.388 291.158C382.711 293.069 383.372 295.519 383.372 298.507V314.896C383.372 316.708 384.278 317.615 386.091 317.615C386.973 317.615 387.83 317.492 388.663 317.247L388.222 322.686C387.096 323.225 385.675 323.494 383.96 323.494C382.392 323.494 380.971 323.225 379.698 322.686C378.473 322.098 377.493 321.24 376.758 320.113C376.072 318.938 375.729 317.492 375.729 315.778V315.263L377.346 315.19C376.905 317.1 375.999 318.693 374.627 319.966C373.255 321.191 371.663 322.122 369.85 322.759C368.037 323.347 366.2 323.641 364.338 323.641C362.035 323.641 359.953 323.274 358.091 322.539C356.279 321.804 354.833 320.701 353.755 319.232C352.727 317.713 352.212 315.851 352.212 313.646C352.212 310.903 353.094 308.649 354.858 306.885C356.671 305.121 359.218 303.921 362.501 303.284L376.758 300.492L376.684 306.003L366.322 308.135C364.265 308.526 362.721 309.09 361.692 309.825C360.664 310.56 360.149 311.638 360.149 313.058C360.149 314.43 360.664 315.533 361.692 316.365C362.77 317.149 364.191 317.541 365.955 317.541C367.18 317.541 368.356 317.394 369.482 317.1C370.658 316.806 371.712 316.341 372.642 315.704C373.573 315.018 374.284 314.161 374.774 313.132C375.313 312.054 375.582 310.78 375.582 309.31V299.316Z" fill="#1A8EF7"/>
<path d="M331.699 323.641C328.025 323.641 324.791 322.882 321.999 321.363C319.206 319.844 317.026 317.664 315.458 314.822C313.939 311.932 313.18 308.502 313.18 304.534C313.18 300.565 313.939 297.16 315.458 294.318C317.026 291.428 319.181 289.223 321.925 287.704C324.669 286.185 327.78 285.426 331.258 285.426C334.835 285.426 337.872 286.161 340.371 287.631C342.87 289.101 344.781 291.109 346.103 293.657C347.426 296.205 348.088 299.095 348.088 302.329C348.088 303.211 348.063 304.044 348.014 304.827C347.965 305.611 347.892 306.297 347.794 306.885H318.251V300.859H344.34L340.445 302.035C340.445 298.703 339.612 296.156 337.946 294.392C336.28 292.579 334.002 291.673 331.111 291.673C329.005 291.673 327.167 292.163 325.6 293.143C324.032 294.122 322.831 295.592 321.999 297.552C321.166 299.463 320.749 301.814 320.749 304.607C320.749 307.351 321.19 309.678 322.072 311.589C322.954 313.499 324.203 314.945 325.82 315.925C327.437 316.904 329.348 317.394 331.552 317.394C334.002 317.394 335.986 316.929 337.505 315.998C339.024 315.067 340.224 313.769 341.106 312.103L347.353 315.043C346.471 316.806 345.27 318.35 343.752 319.673C342.282 320.946 340.518 321.926 338.46 322.612C336.403 323.298 334.149 323.641 331.699 323.641Z" fill="#1A8EF7"/>
<path d="M289.709 322.906V286.161H296.397L297.132 292.775C298.112 290.374 299.557 288.562 301.468 287.337C303.428 286.063 305.828 285.426 308.67 285.426C309.405 285.426 310.14 285.5 310.875 285.646C311.61 285.744 312.222 285.916 312.712 286.161L311.61 293.069C311.071 292.873 310.458 292.726 309.772 292.628C309.135 292.481 308.254 292.408 307.127 292.408C305.608 292.408 304.114 292.824 302.644 293.657C301.174 294.441 299.949 295.641 298.969 297.258C298.038 298.875 297.573 300.932 297.573 303.431V322.906H289.709Z" fill="#1A8EF7"/>
<path d="M272.966 275.358V311.882C272.966 313.695 273.432 315.018 274.363 315.851C275.343 316.684 276.641 317.1 278.258 317.1C279.581 317.1 280.732 316.904 281.712 316.512C282.692 316.071 283.598 315.483 284.431 314.748L286.195 320.481C285.068 321.461 283.671 322.244 282.006 322.832C280.389 323.371 278.576 323.641 276.567 323.641C274.461 323.641 272.525 323.298 270.762 322.612C268.998 321.926 267.626 320.824 266.646 319.305C265.666 317.737 265.152 315.704 265.103 313.205V277.562L272.966 275.358ZM285.607 286.161V292.334H258.048V286.161H285.607Z" fill="#1A8EF7"/>
<path d="M236.397 273.667C240.758 273.667 244.53 274.5 247.715 276.166C250.899 277.783 253.594 280.184 255.799 283.368L250.508 288.439C248.646 285.597 246.539 283.564 244.187 282.339C241.885 281.066 239.141 280.429 235.956 280.429C233.605 280.429 231.67 280.747 230.151 281.384C228.632 282.021 227.505 282.878 226.77 283.956C226.084 284.985 225.741 286.161 225.741 287.484C225.741 289.002 226.256 290.325 227.285 291.452C228.362 292.579 230.347 293.461 233.237 294.098L243.085 296.302C247.788 297.331 251.12 298.899 253.08 301.006C255.039 303.113 256.019 305.783 256.019 309.016C256.019 312.005 255.211 314.602 253.594 316.806C251.977 319.011 249.724 320.701 246.833 321.877C243.991 323.053 240.635 323.641 236.765 323.641C233.335 323.641 230.249 323.2 227.505 322.318C224.761 321.436 222.361 320.236 220.303 318.717C218.245 317.198 216.555 315.459 215.232 313.499L220.67 308.061C221.699 309.776 222.998 311.319 224.565 312.691C226.133 314.014 227.946 315.043 230.004 315.777C232.11 316.512 234.438 316.88 236.985 316.88C239.239 316.88 241.174 316.61 242.791 316.071C244.457 315.532 245.706 314.749 246.539 313.72C247.421 312.642 247.862 311.368 247.862 309.898C247.862 308.477 247.372 307.228 246.392 306.15C245.461 305.072 243.697 304.239 241.101 303.652L230.445 301.226C227.505 300.589 225.08 299.683 223.169 298.507C221.258 297.331 219.838 295.911 218.907 294.245C217.976 292.53 217.51 290.619 217.51 288.513C217.51 285.769 218.245 283.295 219.715 281.09C221.234 278.836 223.414 277.048 226.256 275.725C229.097 274.353 232.478 273.667 236.397 273.667Z" fill="#1A8EF7"/>
</svg>
