<svg width="500" height="500" viewBox="0 0 500 500" fill="none" xmlns="http://www.w3.org/2000/svg">
<path d="M357.078 204.08C373.424 215.236 392.857 240.028 392.857 240.028L366.186 266.825C366.186 266.825 348.463 242.933 332.358 234.145C328.663 232.129 326.609 230.848 322.601 229.57C317.943 228.086 314.34 227.497 309.456 227.669C304.775 227.834 301.993 228.301 297.654 229.57C292.314 231.132 288.329 233.632 285.851 235.453C255.671 257.617 251.76 279.447 221.118 302.774C217.352 305.641 215.398 307.495 211.361 309.963C207.478 312.336 205.191 313.546 200.952 315.192C194.629 317.647 190.778 318.384 184.038 319.114C177.976 319.77 174.476 319.87 168.426 319.114C163.777 318.533 161.185 317.911 156.716 316.499C152.261 315.091 149.897 313.892 145.657 311.924C142.563 310.488 140.74 309.819 137.851 308.002C135.998 306.838 135.021 306.084 133.297 304.734C128.196 300.741 125.594 298.07 121.588 292.969C117.701 288.021 113.131 279.244 113.131 279.244L108.577 265.518C108.577 265.518 107.545 259.167 107.276 255.061C106.977 250.476 107.276 243.296 107.276 243.296C107.276 243.296 108.774 234.006 110.529 228.263C111.803 224.093 112.478 221.7 114.432 217.805C115.765 215.147 116.669 213.73 118.335 211.269C123.792 203.212 128.13 199.458 135.899 193.622C138.834 191.418 140.506 190.187 143.706 188.393C149.185 185.322 152.585 184.055 158.668 182.511C164.381 181.06 167.741 180.767 173.63 180.55C178.967 180.353 182.012 180.389 187.291 181.204C193.017 182.088 196.216 182.983 201.603 185.125C205.828 186.806 211.852 190.396 211.852 190.396C211.852 190.396 215.642 193.064 217.866 194.929C223.658 199.787 231.527 208.655 231.527 208.655L204.855 235.453C204.855 235.453 197.584 226.357 191.194 223.034C188.764 221.77 187.314 221.196 184.689 220.42C182.204 219.684 180.767 219.313 178.184 219.112C174.881 218.856 169.727 219.766 169.727 219.766C169.727 219.766 162.987 221.355 159.318 223.688C155.372 226.197 150.862 232.185 150.862 232.185C150.862 232.185 147.997 236.766 146.958 240.028C145.71 243.948 145.585 246.37 145.657 250.485C145.72 254.095 146.958 259.636 146.958 259.636C146.958 259.636 148.558 264.226 150.211 266.825C152.726 270.78 154.818 272.666 158.668 275.322C162.134 277.714 164.384 278.73 168.426 279.897C171.396 280.756 175.356 280.991 178.446 281.032C183.13 281.093 186.088 280.856 190.249 278.66C212.674 266.825 232.674 234.477 246.902 220.42C258.149 209.308 260.053 207.285 270.165 201.26C277.619 196.818 283.985 193.883 290.389 192.093C294.822 190.854 298.754 190.187 304.209 189.7C310.098 189.175 314.289 189.222 319.348 189.7C323.714 190.113 326.146 190.618 330.407 191.661C335.87 192.999 338.952 193.89 344.068 196.236C349.458 198.709 352.177 200.734 357.078 204.08Z" fill="white"/>
<path d="M288.913 264.885L331.13 305.93L329.035 308.025C315.296 321.764 293.02 321.764 279.281 308.025L262.527 291.271L288.913 264.885Z" fill="white"/>
<path d="M192.246 251.825C192.246 259.685 185.905 266.056 178.082 266.056C170.26 266.056 163.919 259.685 163.919 251.825C163.919 243.966 170.26 237.595 178.082 237.595C185.905 237.595 192.246 243.966 192.246 251.825Z" fill="#1A8EF7"/>
</svg>
