<svg width="500" height="500" viewBox="0 0 500 500" fill="none" xmlns="http://www.w3.org/2000/svg">
<path d="M257.894 230.411V259.15C257.894 260.557 258.246 261.593 258.95 262.258C259.693 262.884 260.69 263.197 261.941 263.197C262.918 263.197 263.779 263.06 264.522 262.786C265.264 262.473 265.929 262.063 266.516 261.554L267.806 266.892C266.868 267.634 265.695 268.221 264.287 268.651C262.879 269.081 261.393 269.296 259.829 269.296C257.874 269.296 256.134 269.003 254.61 268.417C253.124 267.83 251.951 266.892 251.09 265.601C250.269 264.311 249.859 262.591 249.859 260.44V232.639L257.894 230.411ZM267.278 239.384V245.367H244.463V239.384H267.278Z" fill="black"/>
<path d="M234.628 250C234.628 248.319 234.139 247.009 233.161 246.07C232.223 245.132 230.972 244.663 229.408 244.663C227.961 244.663 226.69 245.034 225.595 245.777C224.501 246.52 223.699 247.752 223.191 249.472L216.329 247.361C216.993 244.78 218.44 242.708 220.669 241.144C222.937 239.58 225.967 238.798 229.76 238.798C232.34 238.798 234.589 239.208 236.505 240.029C238.421 240.811 239.906 242.004 240.962 243.607C242.057 245.21 242.604 247.224 242.604 249.648V261.554C242.604 263.04 243.308 263.783 244.716 263.783C245.38 263.783 246.006 263.685 246.593 263.49L246.123 268.475C245.107 268.983 243.836 269.237 242.311 269.237C240.942 269.237 239.711 269.003 238.616 268.534C237.521 268.064 236.661 267.361 236.035 266.422C235.41 265.445 235.097 264.233 235.097 262.786V262.551L236.505 262.317C236.27 263.802 235.625 265.073 234.569 266.129C233.513 267.146 232.223 267.928 230.698 268.475C229.212 269.022 227.668 269.296 226.065 269.296C224.071 269.296 222.35 269.003 220.903 268.416C219.457 267.791 218.342 266.891 217.56 265.718C216.778 264.545 216.387 263.099 216.387 261.378C216.387 259.189 217.091 257.41 218.499 256.041C219.906 254.633 221.92 253.675 224.54 253.167L235.566 250.938L235.508 255.924L228.469 257.331C227.14 257.605 226.123 257.976 225.42 258.446C224.755 258.876 224.422 259.599 224.422 260.616C224.422 261.593 224.774 262.336 225.478 262.845C226.221 263.353 227.101 263.607 228.117 263.607C228.939 263.607 229.74 263.509 230.522 263.314C231.304 263.118 232.008 262.805 232.634 262.375C233.259 261.945 233.748 261.359 234.1 260.616C234.452 259.873 234.628 258.974 234.628 257.918V250Z" fill="black"/>
<path d="M199.278 238.798C202.25 238.798 204.85 239.404 207.079 240.616C209.347 241.828 211.106 243.568 212.358 245.836C213.648 248.104 214.293 250.841 214.293 254.047C214.293 257.214 213.648 259.951 212.358 262.258C211.106 264.526 209.347 266.266 207.079 267.478C204.85 268.69 202.25 269.296 199.278 269.296C196.346 269.296 193.746 268.69 191.478 267.478C189.21 266.266 187.431 264.526 186.141 262.258C184.889 259.951 184.264 257.214 184.264 254.047C184.264 250.841 184.889 248.104 186.141 245.836C187.431 243.568 189.21 241.828 191.478 240.616C193.746 239.404 196.346 238.798 199.278 238.798ZM199.278 244.78C197.793 244.78 196.522 245.132 195.466 245.836C194.449 246.5 193.667 247.517 193.12 248.886C192.573 250.254 192.299 251.975 192.299 254.047C192.299 256.119 192.573 257.84 193.12 259.208C193.667 260.577 194.449 261.613 195.466 262.317C196.522 262.981 197.793 263.314 199.278 263.314C200.725 263.314 201.957 262.981 202.973 262.317C204.029 261.613 204.831 260.577 205.378 259.208C205.925 257.84 206.199 256.119 206.199 254.047C206.199 251.975 205.925 250.254 205.378 248.886C204.831 247.517 204.029 246.5 202.973 245.836C201.957 245.132 200.725 244.78 199.278 244.78Z" fill="black"/>
<path d="M178.027 230.05L178.027 259.678C178.027 261.046 178.262 262.004 178.731 262.551C179.2 263.099 179.982 263.373 181.077 263.373C181.742 263.373 182.289 263.333 182.719 263.255C183.15 263.138 183.697 262.982 184.362 262.786L183.658 268.065C182.993 268.456 182.153 268.749 181.136 268.944C180.158 269.179 179.181 269.296 178.203 269.296C175.349 269.296 173.257 268.612 171.928 267.244C170.637 265.836 169.992 263.607 169.992 260.557V230.05H178.027Z" fill="black"/>
<path d="M166.924 236.51H146.045V246.364H162.525V252.874H146.045V268.71H137.951V230H166.924V236.51Z" fill="black"/>
<path d="M407.85 268.718V239.824H413.34L413.628 244.678C414.63 242.829 415.959 241.461 417.616 240.575C419.311 239.689 421.102 239.246 422.99 239.246C425.071 239.246 426.978 239.728 428.711 240.691C430.483 241.615 431.813 243.022 432.699 244.909C433.315 243.638 434.163 242.579 435.241 241.731C436.32 240.883 437.514 240.267 438.824 239.882C440.134 239.458 441.425 239.246 442.696 239.246C444.545 239.246 446.279 239.631 447.897 240.402C449.515 241.172 450.825 242.347 451.827 243.927C452.828 245.507 453.329 247.529 453.329 249.995V268.718H447.146V250.977C447.146 248.627 446.587 246.932 445.47 245.892C444.353 244.852 442.927 244.331 441.194 244.331C439.845 244.331 438.593 244.659 437.437 245.314C436.32 245.969 435.415 246.951 434.721 248.261C434.028 249.532 433.681 251.112 433.681 253V268.718H427.498V250.977C427.498 248.627 426.939 246.932 425.822 245.892C424.705 244.852 423.279 244.331 421.545 244.331C420.39 244.331 419.234 244.64 418.078 245.256C416.922 245.873 415.959 246.836 415.189 248.146C414.418 249.455 414.033 251.189 414.033 253.346V268.718H407.85Z" fill="#1A8EF7"/>
<path d="M394.483 250.168C394.483 248.242 393.943 246.759 392.865 245.718C391.824 244.64 390.38 244.1 388.53 244.1C386.797 244.1 385.314 244.505 384.081 245.314C382.848 246.123 381.943 247.433 381.365 249.244L376.164 247.048C376.896 244.697 378.321 242.81 380.44 241.384C382.598 239.959 385.371 239.246 388.762 239.246C391.073 239.246 393.115 239.631 394.887 240.402C396.659 241.134 398.046 242.251 399.048 243.754C400.088 245.256 400.608 247.182 400.608 249.532V262.419C400.608 263.845 401.321 264.557 402.746 264.557C403.44 264.557 404.114 264.461 404.769 264.269L404.422 268.545C403.536 268.969 402.419 269.181 401.071 269.181C399.838 269.181 398.721 268.969 397.719 268.545C396.756 268.083 395.985 267.408 395.407 266.522C394.868 265.598 394.598 264.461 394.598 263.113V262.708L395.87 262.65C395.523 264.153 394.81 265.405 393.731 266.407C392.653 267.37 391.401 268.102 389.975 268.603C388.55 269.065 387.105 269.296 385.641 269.296C383.83 269.296 382.193 269.007 380.729 268.429C379.304 267.851 378.167 266.985 377.32 265.829C376.51 264.635 376.106 263.171 376.106 261.437C376.106 259.279 376.799 257.507 378.186 256.12C379.612 254.733 381.615 253.79 384.196 253.289L395.407 251.093L395.35 255.427L387.201 257.103C385.583 257.411 384.37 257.854 383.561 258.432C382.752 259.01 382.347 259.857 382.347 260.975C382.347 262.053 382.752 262.92 383.561 263.575C384.408 264.191 385.525 264.5 386.912 264.5C387.876 264.5 388.8 264.384 389.686 264.153C390.611 263.922 391.439 263.556 392.171 263.055C392.903 262.516 393.462 261.841 393.847 261.032C394.271 260.185 394.483 259.183 394.483 258.027V250.168Z" fill="#1A8EF7"/>
<path d="M359.976 269.296C357.086 269.296 354.544 268.699 352.348 267.505C350.152 266.31 348.437 264.596 347.205 262.361C346.01 260.088 345.413 257.392 345.413 254.271C345.413 251.151 346.01 248.473 347.205 246.239C348.437 243.965 350.132 242.232 352.29 241.038C354.447 239.843 356.894 239.246 359.629 239.246C362.441 239.246 364.83 239.824 366.795 240.98C368.76 242.136 370.262 243.715 371.302 245.718C372.343 247.722 372.863 249.995 372.863 252.537C372.863 253.231 372.843 253.886 372.805 254.502C372.766 255.119 372.709 255.658 372.631 256.12H349.4V251.382H369.915L366.853 252.306C366.853 249.687 366.198 247.683 364.888 246.296C363.578 244.871 361.786 244.158 359.513 244.158C357.857 244.158 356.412 244.543 355.179 245.314C353.947 246.084 353.003 247.24 352.348 248.781C351.693 250.284 351.365 252.133 351.365 254.329C351.365 256.486 351.712 258.316 352.405 259.819C353.099 261.321 354.081 262.458 355.353 263.228C356.624 263.999 358.127 264.384 359.86 264.384C361.786 264.384 363.347 264.018 364.541 263.286C365.735 262.554 366.679 261.533 367.373 260.223L372.285 262.535C371.591 263.922 370.647 265.135 369.453 266.176C368.297 267.177 366.91 267.948 365.292 268.487C363.674 269.026 361.902 269.296 359.976 269.296Z" fill="#1A8EF7"/>
<path d="M326.957 268.718V239.824H332.216L332.794 245.025C333.564 243.137 334.701 241.712 336.203 240.749C337.744 239.747 339.632 239.246 341.866 239.246C342.444 239.246 343.022 239.304 343.6 239.419C344.178 239.497 344.66 239.631 345.045 239.824L344.178 245.256C343.754 245.102 343.273 244.986 342.733 244.909C342.232 244.794 341.539 244.736 340.653 244.736C339.459 244.736 338.284 245.063 337.128 245.718C335.972 246.335 335.009 247.279 334.238 248.55C333.506 249.821 333.14 251.439 333.14 253.404V268.718H326.957Z" fill="#1A8EF7"/>
<path d="M313.791 231.329V260.05C313.791 261.475 314.157 262.516 314.889 263.171C315.66 263.826 316.681 264.153 317.952 264.153C318.992 264.153 319.897 263.999 320.668 263.691C321.438 263.344 322.151 262.882 322.806 262.304L324.193 266.811C323.307 267.582 322.209 268.198 320.899 268.66C319.628 269.084 318.202 269.296 316.623 269.296C314.966 269.296 313.444 269.026 312.057 268.487C310.671 267.948 309.592 267.081 308.821 265.887C308.051 264.654 307.646 263.055 307.608 261.09V233.063L313.791 231.329ZM323.731 239.824V244.678H302.06V239.824H323.731Z" fill="#1A8EF7"/>
<path d="M285.036 230C288.464 230 291.431 230.655 293.935 231.965C296.439 233.236 298.558 235.124 300.292 237.628L296.131 241.615C294.667 239.381 293.01 237.782 291.161 236.819C289.351 235.817 287.193 235.317 284.689 235.317C282.84 235.317 281.318 235.567 280.124 236.068C278.929 236.569 278.043 237.243 277.465 238.09C276.926 238.899 276.656 239.824 276.656 240.864C276.656 242.059 277.061 243.099 277.87 243.985C278.717 244.871 280.278 245.564 282.551 246.065L290.294 247.799C293.993 248.608 296.613 249.841 298.154 251.497C299.695 253.154 300.465 255.254 300.465 257.796C300.465 260.146 299.83 262.188 298.558 263.922C297.287 265.656 295.515 266.985 293.242 267.909C291.007 268.834 288.368 269.296 285.325 269.296C282.628 269.296 280.201 268.949 278.043 268.256C275.886 267.563 273.998 266.619 272.38 265.424C270.762 264.23 269.433 262.862 268.393 261.321L272.669 257.045C273.478 258.393 274.499 259.607 275.732 260.686C276.965 261.726 278.39 262.535 280.008 263.113C281.665 263.691 283.495 263.98 285.498 263.98C287.27 263.98 288.792 263.768 290.063 263.344C291.373 262.92 292.356 262.304 293.01 261.495C293.704 260.647 294.051 259.646 294.051 258.49C294.051 257.372 293.665 256.39 292.895 255.543C292.163 254.695 290.776 254.04 288.734 253.578L280.355 251.671C278.043 251.17 276.136 250.457 274.634 249.533C273.131 248.608 272.014 247.491 271.282 246.181C270.55 244.832 270.184 243.33 270.184 241.673C270.184 239.516 270.762 237.57 271.918 235.837C273.112 234.064 274.826 232.658 277.061 231.618C279.295 230.539 281.954 230 285.036 230Z" fill="#1A8EF7"/>
<path d="M120.546 236.671C125.16 239.82 130.645 246.82 130.645 246.82L123.117 254.385C123.117 254.385 118.115 247.64 113.569 245.159C112.526 244.59 111.946 244.228 110.815 243.867C109.5 243.448 108.483 243.282 107.105 243.33C105.783 243.377 104.998 243.509 103.773 243.867C102.266 244.308 101.141 245.014 100.442 245.528C91.9232 251.785 90.8194 257.948 82.1705 264.533C81.1073 265.343 80.5557 265.867 79.4162 266.563C78.3203 267.233 77.6749 267.575 76.4783 268.039C74.6936 268.732 73.6067 268.94 71.7043 269.146C69.9933 269.332 69.0053 269.36 67.2975 269.146C65.9854 268.983 65.2537 268.807 63.9924 268.408C62.7349 268.011 62.0677 267.672 60.871 267.117C59.9976 266.711 59.4831 266.522 58.6676 266.01C58.1447 265.681 57.8688 265.468 57.3823 265.087C55.9424 263.96 55.208 263.206 54.0772 261.766C52.98 260.369 51.6901 257.891 51.6901 257.891L50.4048 254.016C50.4048 254.016 50.1134 252.223 50.0376 251.063C49.953 249.769 50.0376 247.742 50.0376 247.742C50.0376 247.742 50.4603 245.12 50.9557 243.498C51.3154 242.321 51.506 241.645 52.0574 240.546C52.4337 239.795 52.6886 239.395 53.1591 238.701C54.6994 236.426 55.9238 235.366 58.1167 233.719C58.945 233.096 59.417 232.749 60.3201 232.242C61.8668 231.375 62.8262 231.018 64.5433 230.582C66.1558 230.172 67.1044 230.089 68.7665 230.028C70.273 229.973 71.1323 229.983 72.6224 230.213C74.2386 230.462 75.1416 230.715 76.662 231.32C77.8547 231.794 79.555 232.808 79.555 232.808C79.555 232.808 80.6247 233.561 81.2524 234.088C82.8873 235.459 85.1083 237.963 85.1083 237.963L77.58 245.528C77.58 245.528 75.5276 242.96 73.7241 242.022C73.0382 241.665 72.6288 241.503 71.8879 241.284C71.1865 241.076 70.7809 240.972 70.0518 240.915C69.1196 240.842 67.6648 241.099 67.6648 241.099C67.6648 241.099 65.7623 241.548 64.7269 242.207C63.6129 242.915 62.3399 244.605 62.3399 244.605C62.3399 244.605 61.5314 245.899 61.2382 246.82C60.8858 247.926 60.8507 248.61 60.871 249.772C60.8888 250.791 61.2382 252.355 61.2382 252.355C61.2382 252.355 61.6898 253.651 62.1563 254.385C62.866 255.501 63.4566 256.034 64.5433 256.784C65.5217 257.459 66.1568 257.746 67.2975 258.075C68.1359 258.318 69.2537 258.384 70.1259 258.396C71.448 258.413 72.2828 258.346 73.4574 257.726C79.787 254.385 85.4321 245.252 89.4481 241.284C92.6227 238.147 93.16 237.576 96.0142 235.875C98.1182 234.621 99.915 233.792 101.723 233.287C102.974 232.937 104.084 232.749 105.623 232.611C107.286 232.463 108.469 232.477 109.897 232.611C111.129 232.728 111.815 232.87 113.018 233.165C114.56 233.543 115.43 233.794 116.874 234.457C118.395 235.155 119.163 235.726 120.546 236.671Z" fill="black"/>
<path d="M101.306 253.837L113.222 265.425L112.631 266.016C108.753 269.895 102.465 269.895 98.5873 266.016L93.8583 261.286L101.306 253.837Z" fill="black"/>
<path d="M74.0209 250.15C74.0209 252.369 72.2311 254.168 70.0232 254.168C67.8154 254.168 66.0255 252.369 66.0255 250.15C66.0255 247.931 67.8154 246.133 70.0232 246.133C72.2311 246.133 74.0209 247.931 74.0209 250.15Z" fill="#1A8EF7"/>
</svg>
