<svg width="500" height="500" viewBox="0 0 500 500" fill="none" xmlns="http://www.w3.org/2000/svg">
<path d="M357.078 204.222C373.424 215.378 392.857 240.171 392.857 240.171L366.186 266.968C366.186 266.968 348.463 243.075 332.358 234.288C328.663 232.272 326.609 230.99 322.601 229.713C317.943 228.228 314.34 227.639 309.456 227.812C304.775 227.976 301.993 228.444 297.654 229.713C292.314 231.275 288.329 233.775 285.851 235.595C255.671 257.759 251.76 279.59 221.118 302.916C217.352 305.784 215.398 307.638 211.361 310.106C207.478 312.479 205.191 313.689 200.952 315.335C194.629 317.789 190.778 318.527 184.038 319.256C177.976 319.913 174.476 320.012 168.426 319.256C163.777 318.676 161.185 318.054 156.716 316.642C152.261 315.234 149.897 314.035 145.657 312.067C142.563 310.63 140.74 309.962 137.851 308.145C135.998 306.98 135.021 306.227 133.297 304.877C128.196 300.884 125.594 298.213 121.588 293.112C117.701 288.164 113.131 279.387 113.131 279.387L108.577 265.661C108.577 265.661 107.545 259.31 107.276 255.203C106.977 250.619 107.276 243.439 107.276 243.439C107.276 243.439 108.774 234.149 110.529 228.406C111.803 224.236 112.478 221.843 114.432 217.948C115.765 215.29 116.669 213.873 118.335 211.412C123.792 203.354 128.13 199.601 135.899 193.765C138.834 191.561 140.506 190.329 143.706 188.536C149.185 185.465 152.585 184.198 158.668 182.654C164.381 181.203 167.741 180.91 173.63 180.693C178.967 180.496 182.012 180.531 187.291 181.346C193.017 182.23 196.216 183.126 201.603 185.268C205.828 186.949 211.852 190.538 211.852 190.538C211.852 190.538 215.642 193.207 217.866 195.072C223.658 199.929 231.527 208.798 231.527 208.798L204.855 235.595C204.855 235.595 197.584 226.5 191.194 223.177C188.764 221.913 187.314 221.339 184.689 220.563C182.204 219.827 180.767 219.456 178.184 219.255C174.881 218.999 169.727 219.909 169.727 219.909C169.727 219.909 162.987 221.498 159.318 223.831C155.372 226.34 150.862 232.327 150.862 232.327C150.862 232.327 147.997 236.909 146.958 240.171C145.71 244.09 145.585 246.513 145.657 250.628C145.72 254.237 146.958 259.779 146.958 259.779C146.958 259.779 148.558 264.369 150.211 266.968C152.726 270.923 154.818 272.808 158.668 275.465C162.134 277.857 164.384 278.873 168.426 280.04C171.396 280.899 175.356 281.134 178.446 281.175C183.13 281.236 186.088 280.999 190.249 278.803C212.674 266.968 232.674 234.62 246.902 220.563C258.149 209.451 260.053 207.428 270.165 201.402C277.619 196.96 283.985 194.026 290.389 192.236C294.822 190.997 298.754 190.33 304.209 189.843C310.098 189.318 314.289 189.365 319.348 189.843C323.714 190.256 326.146 190.761 330.407 191.804C335.87 193.142 338.952 194.033 344.068 196.379C349.458 198.851 352.177 200.877 357.078 204.222Z" fill="black"/>
<path d="M288.913 265.028L331.13 306.073L329.035 308.168C315.296 321.907 293.02 321.907 279.281 308.168L262.527 291.414L288.913 265.028Z" fill="black"/>
<path d="M192.246 251.968C192.246 259.827 185.905 266.199 178.082 266.199C170.26 266.199 163.919 259.827 163.919 251.968C163.919 244.109 170.26 237.738 178.082 237.738C185.905 237.738 192.246 244.109 192.246 251.968Z" fill="#1A8EF7"/>
</svg>
