<svg width="500" height="500" viewBox="0 0 500 500" fill="none" xmlns="http://www.w3.org/2000/svg">
<path d="M286.545 208.22C291.97 211.923 298.42 220.151 298.42 220.151L289.568 229.046C289.568 229.046 283.686 221.116 278.341 218.199C277.114 217.53 276.433 217.105 275.102 216.681C273.556 216.188 272.361 215.992 270.74 216.05C269.186 216.104 268.263 216.259 266.823 216.681C265.05 217.199 263.728 218.029 262.905 218.633C252.889 225.989 251.591 233.235 241.421 240.977C240.171 241.928 239.522 242.544 238.182 243.363C236.894 244.15 236.135 244.552 234.728 245.098C232.629 245.913 231.351 246.158 229.114 246.4C227.102 246.618 225.94 246.651 223.932 246.4C222.389 246.207 221.529 246.001 220.046 245.532C218.567 245.065 217.783 244.667 216.376 244.014C215.349 243.537 214.744 243.315 213.785 242.712C213.17 242.325 212.845 242.075 212.273 241.627C210.58 240.302 209.717 239.416 208.387 237.723C207.097 236.08 205.58 233.167 205.58 233.167L204.069 228.612C204.069 228.612 203.726 226.504 203.637 225.141C203.538 223.619 203.637 221.236 203.637 221.236C203.637 221.236 204.134 218.153 204.717 216.247C205.139 214.863 205.364 214.069 206.012 212.776C206.454 211.894 206.754 211.423 207.307 210.607C209.119 207.932 210.558 206.687 213.137 204.75C214.111 204.018 214.666 203.609 215.728 203.014C217.546 201.995 218.675 201.574 220.694 201.062C222.59 200.58 223.705 200.483 225.66 200.411C227.431 200.346 228.441 200.357 230.194 200.628C232.094 200.921 233.156 201.219 234.944 201.93C236.346 202.487 238.345 203.679 238.345 203.679C238.345 203.679 239.603 204.565 240.341 205.183C242.264 206.796 244.875 209.739 244.875 209.739L236.023 218.633C236.023 218.633 233.61 215.614 231.489 214.511C230.683 214.092 230.201 213.901 229.33 213.644C228.505 213.4 228.028 213.276 227.171 213.21C226.075 213.125 224.364 213.427 224.364 213.427C224.364 213.427 222.127 213.954 220.91 214.728C219.6 215.561 218.103 217.548 218.103 217.548C218.103 217.548 217.152 219.069 216.807 220.151C216.393 221.453 216.352 222.257 216.376 223.622C216.396 224.82 216.807 226.659 216.807 226.659C216.807 226.659 217.338 228.183 217.887 229.046C218.721 230.358 219.416 230.984 220.694 231.866C221.844 232.659 222.591 232.997 223.932 233.384C224.918 233.669 226.232 233.747 227.258 233.761C228.813 233.781 229.794 233.702 231.175 232.973C238.618 229.046 245.256 218.309 249.978 213.644C253.711 209.956 254.343 209.284 257.699 207.284C260.173 205.81 262.286 204.836 264.411 204.242C265.883 203.831 267.188 203.61 268.998 203.448C270.953 203.274 272.344 203.289 274.023 203.448C275.472 203.585 276.279 203.752 277.693 204.099C279.507 204.543 280.529 204.839 282.227 205.617C284.016 206.438 284.919 207.11 286.545 208.22Z" fill="black"/>
<path d="M263.921 228.402L277.933 242.024L277.238 242.72C272.678 247.28 265.285 247.28 260.725 242.72L255.164 237.159L263.921 228.402Z" fill="black"/>
<path d="M231.838 224.067C231.838 226.676 229.733 228.79 227.137 228.79C224.541 228.79 222.437 226.676 222.437 224.067C222.437 221.459 224.541 219.344 227.137 219.344C229.733 219.344 231.838 221.459 231.838 224.067Z" fill="#1A8EF7"/>
<path d="M201.491 273.927V310.378C201.491 312.163 201.938 313.477 202.83 314.32C203.773 315.114 205.037 315.51 206.624 315.51C207.864 315.51 208.955 315.337 209.897 314.99C210.84 314.593 211.683 314.072 212.426 313.428L214.063 320.197C212.873 321.139 211.385 321.883 209.6 322.429C207.814 322.974 205.93 323.247 203.946 323.247C201.467 323.247 199.26 322.875 197.326 322.131C195.441 321.387 193.953 320.197 192.862 318.56C191.821 316.924 191.3 314.742 191.3 312.014V276.754L201.491 273.927ZM213.394 285.309V292.896H184.457V285.309H213.394Z" fill="black"/>
<path d="M171.983 298.773C171.983 296.641 171.363 294.979 170.123 293.789C168.933 292.599 167.346 292.004 165.362 292.004C163.527 292.004 161.915 292.475 160.527 293.417C159.138 294.359 158.122 295.922 157.477 298.104L148.773 295.426C149.617 292.153 151.451 289.524 154.278 287.54C157.155 285.557 160.998 284.565 165.808 284.565C169.081 284.565 171.933 285.086 174.363 286.127C176.793 287.119 178.677 288.631 180.016 290.665C181.405 292.698 182.099 295.252 182.099 298.327V313.428C182.099 315.312 182.992 316.254 184.777 316.254C185.62 316.254 186.414 316.13 187.158 315.882L186.563 322.205C185.273 322.85 183.661 323.172 181.727 323.172C179.992 323.172 178.43 322.875 177.041 322.28C175.652 321.685 174.561 320.792 173.768 319.602C172.974 318.362 172.578 316.825 172.578 314.99V314.692L174.363 314.395C174.065 316.279 173.247 317.891 171.908 319.23C170.569 320.519 168.933 321.511 166.999 322.205C165.114 322.9 163.155 323.247 161.122 323.247C158.593 323.247 156.411 322.875 154.576 322.131C152.741 321.337 151.327 320.197 150.336 318.709C149.344 317.221 148.848 315.386 148.848 313.204C148.848 310.427 149.74 308.171 151.526 306.435C153.311 304.65 155.865 303.435 159.188 302.79L173.173 299.963L173.098 306.286L164.172 308.072C162.486 308.419 161.196 308.89 160.304 309.485C159.461 310.03 159.039 310.948 159.039 312.237C159.039 313.477 159.485 314.419 160.378 315.064C161.32 315.709 162.436 316.031 163.725 316.031C164.767 316.031 165.784 315.907 166.775 315.659C167.767 315.411 168.66 315.014 169.453 314.469C170.247 313.923 170.867 313.18 171.313 312.237C171.759 311.295 171.983 310.154 171.983 308.815V298.773Z" fill="black"/>
<path d="M127.148 284.565C130.917 284.565 134.215 285.334 137.042 286.871C139.918 288.408 142.15 290.615 143.737 293.492C145.373 296.368 146.192 299.839 146.192 303.906C146.192 307.923 145.373 311.394 143.737 314.32C142.15 317.197 139.918 319.403 137.042 320.941C134.215 322.478 130.917 323.247 127.148 323.247C123.429 323.247 120.131 322.478 117.255 320.941C114.378 319.403 112.122 317.197 110.485 314.32C108.898 311.394 108.105 307.923 108.105 303.906C108.105 299.839 108.898 296.368 110.485 293.492C112.122 290.615 114.378 288.408 117.255 286.871C120.131 285.334 123.429 284.565 127.148 284.565ZM127.148 292.153C125.264 292.153 123.652 292.599 122.313 293.492C121.024 294.335 120.032 295.624 119.338 297.36C118.643 299.095 118.296 301.277 118.296 303.906C118.296 306.534 118.643 308.716 119.338 310.452C120.032 312.188 121.024 313.502 122.313 314.395C123.652 315.238 125.264 315.659 127.148 315.659C128.983 315.659 130.545 315.238 131.835 314.395C133.174 313.502 134.19 312.188 134.885 310.452C135.579 308.716 135.926 306.534 135.926 303.906C135.926 301.277 135.579 299.095 134.885 297.36C134.19 295.624 133.174 294.335 131.835 293.492C130.545 292.599 128.983 292.153 127.148 292.153Z" fill="black"/>
<path d="M100.195 273.469L100.195 311.047C100.195 312.783 100.493 313.998 101.088 314.692C101.683 315.386 102.675 315.734 104.063 315.734C104.906 315.734 105.601 315.684 106.146 315.585C106.692 315.436 107.386 315.238 108.229 314.99L107.336 321.685C106.493 322.181 105.427 322.553 104.138 322.8C102.898 323.098 101.658 323.247 100.418 323.247C96.798 323.247 94.1448 322.379 92.4587 320.643C90.8222 318.858 90.0039 316.031 90.0039 312.163V273.469H100.195Z" fill="black"/>
<path d="M86.113 281.664H59.6308V294.161H80.5339V302.418H59.6308V322.503H49.3652V273.407H86.113V281.664Z" fill="black"/>
<path d="M391.683 322.514V285.867H398.646L399.012 292.023C400.282 289.678 401.968 287.943 404.069 286.82C406.219 285.696 408.491 285.134 410.886 285.134C413.524 285.134 415.943 285.745 418.142 286.966C420.39 288.139 422.075 289.922 423.199 292.317C423.981 290.704 425.056 289.36 426.424 288.285C427.792 287.21 429.307 286.429 430.968 285.94C432.63 285.403 434.267 285.134 435.879 285.134C438.224 285.134 440.423 285.622 442.475 286.6C444.528 287.577 446.189 289.067 447.46 291.071C448.73 293.074 449.365 295.639 449.365 298.767V322.514H441.523V300.013C441.523 297.032 440.814 294.882 439.397 293.563C437.98 292.243 436.172 291.584 433.973 291.584C432.263 291.584 430.675 291.999 429.209 292.83C427.792 293.66 426.644 294.906 425.764 296.568C424.885 298.18 424.445 300.184 424.445 302.578V322.514H416.603V300.013C416.603 297.032 415.894 294.882 414.477 293.563C413.06 292.243 411.252 291.584 409.053 291.584C407.587 291.584 406.122 291.975 404.656 292.756C403.19 293.538 401.968 294.76 400.991 296.421C400.014 298.082 399.525 300.281 399.525 303.018V322.514H391.683Z" fill="#1A8EF7"/>
<path d="M374.729 298.986C374.729 296.543 374.045 294.662 372.677 293.343C371.357 291.975 369.525 291.291 367.18 291.291C364.981 291.291 363.1 291.804 361.536 292.83C359.972 293.856 358.824 295.517 358.091 297.814L351.495 295.029C352.423 292.048 354.231 289.654 356.918 287.846C359.655 286.038 363.173 285.134 367.473 285.134C370.405 285.134 372.994 285.622 375.242 286.6C377.49 287.528 379.249 288.945 380.519 290.851C381.838 292.756 382.498 295.2 382.498 298.18V314.525C382.498 316.333 383.402 317.237 385.21 317.237C386.09 317.237 386.945 317.114 387.775 316.87L387.336 322.294C386.212 322.831 384.795 323.1 383.084 323.1C381.521 323.1 380.104 322.831 378.833 322.294C377.612 321.708 376.635 320.852 375.902 319.729C375.218 318.556 374.876 317.114 374.876 315.404V314.891L376.488 314.818C376.048 316.724 375.144 318.312 373.776 319.582C372.408 320.804 370.82 321.732 369.012 322.367C367.204 322.954 365.372 323.247 363.515 323.247C361.218 323.247 359.142 322.88 357.285 322.147C355.477 321.414 354.036 320.315 352.961 318.849C351.934 317.334 351.421 315.478 351.421 313.279C351.421 310.542 352.301 308.295 354.06 306.536C355.868 304.777 358.409 303.579 361.683 302.944L375.902 300.159L375.828 305.656L365.494 307.782C363.442 308.173 361.902 308.735 360.876 309.467C359.85 310.2 359.337 311.275 359.337 312.692C359.337 314.061 359.85 315.16 360.876 315.991C361.951 316.772 363.368 317.163 365.127 317.163C366.349 317.163 367.522 317.017 368.646 316.724C369.818 316.43 370.869 315.966 371.797 315.331C372.726 314.647 373.434 313.792 373.923 312.766C374.46 311.691 374.729 310.42 374.729 308.954V298.986Z" fill="#1A8EF7"/>
<path d="M330.963 323.247C327.298 323.247 324.073 322.489 321.288 320.975C318.503 319.46 316.328 317.286 314.765 314.451C313.25 311.569 312.493 308.148 312.493 304.19C312.493 300.232 313.25 296.836 314.765 294.002C316.328 291.119 318.478 288.921 321.215 287.406C323.951 285.891 327.054 285.134 330.523 285.134C334.09 285.134 337.12 285.867 339.612 287.333C342.104 288.799 344.009 290.802 345.328 293.343C346.648 295.884 347.307 298.767 347.307 301.991C347.307 302.871 347.283 303.702 347.234 304.483C347.185 305.265 347.112 305.949 347.014 306.536H317.55V300.526H343.569L339.685 301.698C339.685 298.376 338.854 295.835 337.193 294.076C335.531 292.268 333.259 291.364 330.376 291.364C328.275 291.364 326.443 291.852 324.879 292.83C323.316 293.807 322.119 295.273 321.288 297.227C320.457 299.133 320.042 301.478 320.042 304.264C320.042 307 320.482 309.321 321.361 311.227C322.241 313.132 323.487 314.574 325.099 315.551C326.712 316.528 328.617 317.017 330.816 317.017C333.259 317.017 335.238 316.553 336.753 315.624C338.268 314.696 339.465 313.401 340.344 311.74L346.574 314.671C345.695 316.43 344.498 317.97 342.983 319.289C341.517 320.559 339.758 321.537 337.706 322.221C335.654 322.905 333.406 323.247 330.963 323.247Z" fill="#1A8EF7"/>
<path d="M289.085 322.514V285.867H295.755L296.488 292.463C297.465 290.069 298.906 288.261 300.812 287.039C302.767 285.769 305.161 285.134 307.995 285.134C308.728 285.134 309.461 285.207 310.194 285.354C310.927 285.451 311.537 285.622 312.026 285.867L310.927 292.756C310.389 292.561 309.778 292.414 309.094 292.317C308.459 292.17 307.58 292.097 306.456 292.097C304.941 292.097 303.451 292.512 301.985 293.343C300.519 294.125 299.297 295.322 298.32 296.934C297.392 298.547 296.927 300.599 296.927 303.091V322.514H289.085Z" fill="#1A8EF7"/>
<path d="M272.387 275.093V311.52C272.387 313.328 272.851 314.647 273.779 315.478C274.756 316.308 276.051 316.724 277.664 316.724C278.983 316.724 280.131 316.528 281.109 316.137C282.086 315.698 282.99 315.111 283.82 314.378L285.579 320.095C284.456 321.072 283.063 321.854 281.402 322.441C279.789 322.978 277.981 323.247 275.978 323.247C273.877 323.247 271.947 322.905 270.188 322.221C268.429 321.537 267.06 320.437 266.083 318.922C265.106 317.359 264.593 315.331 264.544 312.839V277.291L272.387 275.093ZM284.993 285.867V292.023H257.508V285.867H284.993Z" fill="#1A8EF7"/>
<path d="M235.915 273.407C240.264 273.407 244.027 274.237 247.203 275.899C250.379 277.511 253.066 279.905 255.265 283.082L249.988 288.139C248.131 285.305 246.03 283.277 243.685 282.055C241.388 280.785 238.652 280.15 235.476 280.15C233.13 280.15 231.2 280.467 229.685 281.103C228.171 281.738 227.047 282.593 226.314 283.668C225.63 284.694 225.288 285.867 225.288 287.186C225.288 288.701 225.801 290.02 226.827 291.144C227.902 292.268 229.881 293.147 232.764 293.783L242.585 295.981C247.276 297.007 250.599 298.571 252.553 300.672C254.508 302.773 255.485 305.436 255.485 308.661C255.485 311.642 254.679 314.232 253.066 316.43C251.454 318.629 249.206 320.315 246.323 321.488C243.489 322.66 240.142 323.247 236.282 323.247C232.861 323.247 229.783 322.807 227.047 321.927C224.31 321.048 221.916 319.851 219.864 318.336C217.812 316.821 216.126 315.087 214.807 313.132L220.23 307.708C221.257 309.419 222.551 310.958 224.115 312.326C225.679 313.645 227.487 314.671 229.539 315.404C231.64 316.137 233.961 316.504 236.502 316.504C238.749 316.504 240.679 316.235 242.292 315.697C243.953 315.16 245.199 314.378 246.03 313.352C246.909 312.277 247.349 311.007 247.349 309.541C247.349 308.124 246.861 306.878 245.883 305.803C244.955 304.728 243.196 303.897 240.606 303.311L229.979 300.892C227.047 300.257 224.628 299.353 222.722 298.18C220.817 297.007 219.4 295.59 218.471 293.929C217.543 292.219 217.079 290.313 217.079 288.212C217.079 285.476 217.812 283.008 219.278 280.809C220.792 278.562 222.967 276.778 225.801 275.459C228.635 274.091 232.006 273.407 235.915 273.407Z" fill="#1A8EF7"/>
</svg>
